<mxfile host="app.diagrams.net" modified="2023-05-19T20:22:15.227Z" agent="Mozilla/5.0 (Windows NT 10.0; Win64; x64) AppleWebKit/537.36 (KHTML, like Gecko) Chrome/113.0.0.0 Safari/537.36" etag="X63SsngMFGE3s2YnslqY" version="21.3.2" type="github">
  <diagram name="Seite-1" id="gq9Vn5Nkp9xodWU8ERR-">
    <mxGraphModel dx="794" dy="438" grid="1" gridSize="10" guides="1" tooltips="1" connect="1" arrows="1" fold="1" page="1" pageScale="1" pageWidth="827" pageHeight="1169" math="0" shadow="0">
      <root>
        <mxCell id="0" />
        <mxCell id="1" parent="0" />
        <mxCell id="2uSN0BV2GcvR22envmSz-3" style="edgeStyle=orthogonalEdgeStyle;rounded=0;orthogonalLoop=1;jettySize=auto;html=1;entryX=0.5;entryY=0;entryDx=0;entryDy=0;exitX=1;exitY=0.5;exitDx=0;exitDy=0;" edge="1" parent="1" source="2uSN0BV2GcvR22envmSz-11" target="2uSN0BV2GcvR22envmSz-2">
          <mxGeometry relative="1" as="geometry">
            <Array as="points">
              <mxPoint x="490" y="125" />
              <mxPoint x="490" y="80" />
              <mxPoint x="580" y="80" />
            </Array>
          </mxGeometry>
        </mxCell>
        <mxCell id="2uSN0BV2GcvR22envmSz-6" style="edgeStyle=orthogonalEdgeStyle;rounded=0;orthogonalLoop=1;jettySize=auto;html=1;entryX=0.5;entryY=0;entryDx=0;entryDy=0;" edge="1" parent="1" source="2uSN0BV2GcvR22envmSz-1" target="2uSN0BV2GcvR22envmSz-5">
          <mxGeometry relative="1" as="geometry" />
        </mxCell>
        <mxCell id="2uSN0BV2GcvR22envmSz-8" style="edgeStyle=orthogonalEdgeStyle;rounded=0;orthogonalLoop=1;jettySize=auto;html=1;entryX=0.5;entryY=0;entryDx=0;entryDy=0;" edge="1" parent="1" source="2uSN0BV2GcvR22envmSz-1" target="2uSN0BV2GcvR22envmSz-7">
          <mxGeometry relative="1" as="geometry" />
        </mxCell>
        <mxCell id="2uSN0BV2GcvR22envmSz-12" style="edgeStyle=orthogonalEdgeStyle;rounded=0;orthogonalLoop=1;jettySize=auto;html=1;entryX=0.5;entryY=1;entryDx=0;entryDy=0;" edge="1" parent="1" source="2uSN0BV2GcvR22envmSz-1" target="2uSN0BV2GcvR22envmSz-11">
          <mxGeometry relative="1" as="geometry" />
        </mxCell>
        <mxCell id="2uSN0BV2GcvR22envmSz-14" style="edgeStyle=orthogonalEdgeStyle;rounded=0;orthogonalLoop=1;jettySize=auto;html=1;" edge="1" parent="1" source="2uSN0BV2GcvR22envmSz-1" target="2uSN0BV2GcvR22envmSz-13">
          <mxGeometry relative="1" as="geometry" />
        </mxCell>
        <mxCell id="2uSN0BV2GcvR22envmSz-1" value="VerdÃ¤chtige" style="rounded=1;whiteSpace=wrap;html=1;fillColor=#f5f5f5;fontColor=#333333;strokeColor=#666666;" vertex="1" parent="1">
          <mxGeometry x="350" y="200" width="120" height="30" as="geometry" />
        </mxCell>
        <mxCell id="2uSN0BV2GcvR22envmSz-2" value="FH Dortmund" style="rounded=1;whiteSpace=wrap;html=1;" vertex="1" parent="1">
          <mxGeometry x="520" y="100" width="120" height="30" as="geometry" />
        </mxCell>
        <mxCell id="2uSN0BV2GcvR22envmSz-5" value="Mannheim" style="rounded=1;whiteSpace=wrap;html=1;" vertex="1" parent="1">
          <mxGeometry x="640" y="240" width="120" height="30" as="geometry" />
        </mxCell>
        <mxCell id="2uSN0BV2GcvR22envmSz-7" value="Darmstadt" style="rounded=1;whiteSpace=wrap;html=1;" vertex="1" parent="1">
          <mxGeometry x="190" y="290" width="120" height="30" as="geometry" />
        </mxCell>
        <mxCell id="2uSN0BV2GcvR22envmSz-9" value="" style="shape=flexArrow;endArrow=classic;startArrow=classic;html=1;rounded=0;entryX=0.372;entryY=0.038;entryDx=0;entryDy=0;exitX=1;exitY=0.5;exitDx=0;exitDy=0;fillColor=#f8cecc;strokeColor=#b85450;width=8.88888888888889;endSize=15.11111111111111;entryPerimeter=0;" edge="1" parent="1" source="2uSN0BV2GcvR22envmSz-2" target="2uSN0BV2GcvR22envmSz-5">
          <mxGeometry width="100" height="100" relative="1" as="geometry">
            <mxPoint x="400" y="350" as="sourcePoint" />
            <mxPoint x="500" y="250" as="targetPoint" />
          </mxGeometry>
        </mxCell>
        <mxCell id="2uSN0BV2GcvR22envmSz-10" value="Feinde" style="edgeLabel;html=1;align=center;verticalAlign=middle;resizable=0;points=[];" vertex="1" connectable="0" parent="2uSN0BV2GcvR22envmSz-9">
          <mxGeometry x="-0.2311" y="-1" relative="1" as="geometry">
            <mxPoint y="12" as="offset" />
          </mxGeometry>
        </mxCell>
        <mxCell id="2uSN0BV2GcvR22envmSz-17" style="edgeStyle=orthogonalEdgeStyle;rounded=0;orthogonalLoop=1;jettySize=auto;html=1;entryX=0.456;entryY=1.005;entryDx=0;entryDy=0;entryPerimeter=0;" edge="1" parent="1" source="2uSN0BV2GcvR22envmSz-11" target="2uSN0BV2GcvR22envmSz-16">
          <mxGeometry relative="1" as="geometry" />
        </mxCell>
        <mxCell id="2uSN0BV2GcvR22envmSz-18" style="edgeStyle=orthogonalEdgeStyle;rounded=0;orthogonalLoop=1;jettySize=auto;html=1;entryX=0.5;entryY=1;entryDx=0;entryDy=0;" edge="1" parent="1" source="2uSN0BV2GcvR22envmSz-11" target="2uSN0BV2GcvR22envmSz-15">
          <mxGeometry relative="1" as="geometry" />
        </mxCell>
        <mxCell id="2uSN0BV2GcvR22envmSz-11" value="MATO" style="rounded=1;whiteSpace=wrap;html=1;" vertex="1" parent="1">
          <mxGeometry x="350" y="110" width="120" height="30" as="geometry" />
        </mxCell>
        <mxCell id="2uSN0BV2GcvR22envmSz-13" value="Lucie (CAU)" style="rounded=1;whiteSpace=wrap;html=1;" vertex="1" parent="1">
          <mxGeometry x="350" y="290" width="120" height="30" as="geometry" />
        </mxCell>
        <mxCell id="2uSN0BV2GcvR22envmSz-15" value="FAU" style="rounded=1;whiteSpace=wrap;html=1;" vertex="1" parent="1">
          <mxGeometry x="210" y="20" width="100" height="30" as="geometry" />
        </mxCell>
        <mxCell id="2uSN0BV2GcvR22envmSz-16" value="Ingoldstadt" style="rounded=1;whiteSpace=wrap;html=1;" vertex="1" parent="1">
          <mxGeometry x="364" y="20" width="100" height="30" as="geometry" />
        </mxCell>
      </root>
    </mxGraphModel>
  </diagram>
</mxfile>
